<?xml version="1.0" standalone="no"?>
<!DOCTYPE svg PUBLIC "-//W3C//DTD SVG 20010904//EN"
 "http://www.w3.org/TR/2001/REC-SVG-20010904/DTD/svg10.dtd">
<svg version="1.0" xmlns="http://www.w3.org/2000/svg"
 width="801.000000pt" height="801.000000pt" viewBox="0 0 801.000000 801.000000"
 preserveAspectRatio="xMidYMid meet">
<metadata>
Created by potrace 1.11, written by Peter Selinger 2001-2013
</metadata>
<g transform="translate(0.000000,801.000000) scale(0.100000,-0.100000)"
fill="#000000" stroke="none">
<path d="M3913 7640 c-100 -28 -164 -73 -216 -155 -50 -78 -67 -211 -38 -287
12 -32 33 -12 -209 -187 -85 -62 -162 -117 -170 -124 -8 -7 -105 -77 -215
-156 -110 -79 -222 -161 -250 -181 -27 -21 -315 -230 -640 -465 -324 -236
-695 -505 -824 -599 -129 -94 -251 -182 -270 -196 -39 -27 -140 -100 -156
-113 -5 -4 -38 -28 -72 -52 l-62 -45 -48 24 c-26 13 -65 29 -85 34 -47 13
-142 9 -194 -8 -179 -59 -283 -265 -223 -444 42 -124 130 -203 264 -237 31 -8
50 -19 55 -33 5 -12 55 -163 110 -336 56 -173 108 -333 115 -355 8 -22 62
-188 120 -370 59 -181 115 -355 125 -385 11 -30 69 -210 130 -400 200 -619
438 -1355 467 -1440 34 -102 35 -95 -12 -128 -103 -72 -162 -229 -133 -354 23
-105 101 -201 197 -247 48 -22 69 -26 151 -26 85 1 101 4 154 30 68 34 147
117 166 175 11 33 18 40 39 40 14 0 242 0 506 0 264 1 1065 1 1780 0 l1300 0
22 -48 c35 -77 87 -128 167 -167 69 -33 77 -35 162 -32 79 3 96 7 152 37 205
109 253 372 101 543 -27 30 -49 59 -49 63 0 7 211 661 240 744 9 27 82 252
260 800 61 190 124 383 140 430 16 47 74 227 130 400 56 173 145 446 197 605
52 160 105 324 119 366 l24 75 58 12 c176 36 296 188 287 362 -5 110 -46 189
-129 256 -125 100 -288 109 -417 22 l-27 -18 -418 305 c-231 167 -428 311
-439 319 -26 19 -246 180 -310 226 -117 86 -473 345 -1073 780 l-642 465 8 35
c4 19 7 69 7 110 0 65 -5 85 -33 142 -74 152 -243 231 -399 188z m-181 -575
c31 -40 106 -86 167 -105 l56 -16 0 -417 c0 -364 -2 -417 -15 -417 -8 0 -42
-13 -75 -29 -197 -92 -264 -334 -143 -515 17 -27 49 -61 70 -75 20 -14 37 -31
38 -37 0 -11 -88 -282 -254 -785 l-61 -186 -535 1 c-294 1 -540 5 -546 8 -6 4
-14 25 -18 46 -8 54 -74 151 -129 190 -68 48 -121 64 -212 65 -66 1 -90 -3
-137 -25 -75 -35 -141 -97 -174 -164 -19 -39 -31 -53 -43 -50 -19 6 -376 86
-410 92 -12 3 -53 12 -90 20 -81 19 -75 18 -196 45 l-100 21 0 72 c0 73 -17
129 -57 188 l-19 27 53 39 c29 21 251 182 493 357 1167 846 1396 1012 1470
1066 101 75 64 47 481 350 196 142 359 259 362 259 2 0 13 -11 24 -25z m693
-70 c72 -53 200 -146 285 -207 85 -62 160 -116 165 -120 9 -8 136 -100 350
-256 300 -218 1920 -1396 1923 -1397 1 -1 -12 -30 -29 -64 -24 -48 -32 -78
-34 -132 -2 -39 -5 -73 -7 -74 -2 -2 -188 -45 -413 -95 -226 -50 -419 -93
-431 -96 -16 -4 -24 3 -38 35 -25 55 -100 126 -166 158 -80 39 -199 42 -278 7
-106 -47 -164 -109 -203 -216 -14 -37 -27 -58 -38 -59 -111 -4 -1028 4 -1032
9 -4 4 -64 183 -134 397 -70 215 -139 428 -155 475 l-28 85 30 14 c40 19 106
87 131 136 30 58 46 139 41 203 -12 144 -138 286 -273 308 -23 4 -44 10 -47
15 -4 7 -7 501 -4 782 0 34 4 47 15 47 40 0 130 46 178 90 28 27 54 49 57 50
3 0 64 -43 135 -95z m-272 -1792 c37 -114 104 -318 148 -453 44 -135 82 -251
84 -258 4 -10 -73 -12 -385 -12 -270 1 -390 5 -390 12 0 6 67 216 150 468
l150 456 87 -3 88 -2 68 -208z m2986 -597 c39 -62 105 -115 173 -141 41 -15
46 -20 38 -39 -5 -11 -59 -176 -120 -366 -140 -432 -267 -823 -285 -875 -7
-22 -40 -123 -73 -225 -33 -102 -123 -378 -200 -615 -129 -396 -378 -1162
-405 -1245 -16 -49 -18 -51 -61 -39 -57 16 -115 17 -171 2 -27 -7 -51 -10 -54
-7 -6 6 -209 303 -427 627 l-167 247 47 50 c87 93 117 201 90 320 -16 69 -34
104 -79 158 -68 79 -169 121 -281 117 l-61 -2 -118 361 c-197 600 -206 629
-198 637 4 4 150 110 323 236 173 126 359 262 413 302 l98 72 35 -26 c65 -50
140 -77 212 -77 85 -1 113 5 178 38 114 58 193 190 189 317 -1 20 1 37 4 37 4
0 148 32 321 71 173 39 326 73 340 75 14 2 59 13 100 23 41 10 82 19 90 19 8
1 30 -23 49 -52z m-6034 0 c390 -87 610 -138 614 -142 3 -3 6 -21 7 -42 5
-114 71 -220 177 -285 46 -28 144 -50 201 -44 89 10 124 24 203 83 l28 22 425
-310 c234 -170 431 -315 438 -322 10 -10 -7 -71 -92 -332 -58 -175 -130 -395
-160 -489 l-56 -170 -62 -1 c-121 -2 -211 -47 -280 -139 -100 -132 -94 -317
14 -439 l41 -47 -76 -112 c-42 -62 -126 -186 -187 -277 -62 -91 -164 -241
-227 -335 -64 -93 -119 -173 -122 -178 -4 -4 -27 0 -52 9 -39 14 -152 22 -188
13 -9 -3 -25 30 -52 111 -55 167 -200 614 -248 765 -23 72 -68 211 -101 310
-32 99 -104 322 -160 495 -56 173 -110 340 -120 370 -10 30 -64 197 -120 370
-56 173 -110 340 -120 370 -10 30 -55 170 -101 310 -45 140 -84 261 -86 268
-3 6 2 12 11 12 29 0 121 49 158 84 21 19 49 53 63 76 14 22 26 40 28 40 1 0
92 -20 202 -44z m2382 -213 c-2 -5 -57 -170 -122 -368 -64 -198 -121 -364
-125 -369 -7 -7 -96 55 -325 224 -27 20 -157 114 -287 209 -131 95 -238 174
-238 176 0 3 10 34 21 70 l22 65 529 0 c291 0 527 -3 525 -7z m1058 -387 c70
-215 129 -395 131 -401 2 -5 -28 -32 -67 -60 -39 -27 -76 -54 -82 -60 -7 -5
-28 -21 -47 -35 -19 -13 -136 -98 -260 -189 -213 -156 -225 -163 -247 -150
-13 8 -167 119 -342 247 l-319 232 18 58 c10 31 36 111 58 177 22 66 69 210
105 320 36 110 70 212 76 228 l11 27 419 -2 418 -2 128 -390z m979 383 c6 -7
47 -141 44 -144 -2 -1 -97 -71 -213 -156 -115 -84 -293 -213 -395 -287 -102
-74 -190 -139 -196 -144 -14 -10 -15 -8 -148 400 -59 178 -104 327 -102 331 5
7 1003 8 1010 0z m-694 -1254 c67 -204 137 -419 157 -480 l36 -109 -28 -21
c-16 -11 -44 -35 -63 -53 l-34 -33 -54 38 c-29 21 -70 51 -91 66 -21 15 -52
38 -70 50 -18 12 -153 110 -300 218 -147 108 -278 202 -290 210 -13 8 -23 17
-23 20 0 4 21 23 48 41 131 95 509 371 522 381 29 23 64 47 66 44 2 -2 58
-169 124 -372z m-1225 139 c171 -124 311 -227 313 -229 3 -2 -775 -571 -805
-588 -6 -4 -27 8 -46 26 -19 18 -48 39 -64 47 -15 8 -29 15 -31 16 -2 1 8 35
21 75 14 41 84 255 156 477 73 221 135 402 139 402 4 0 147 -102 317 -226z
m754 -549 c189 -137 376 -274 418 -303 68 -49 74 -56 69 -80 -4 -15 -9 -57
-13 -94 -7 -82 8 -143 52 -213 65 -103 164 -159 285 -159 41 -1 91 2 110 6
l35 7 82 -122 c45 -67 178 -265 297 -440 l215 -319 -35 -30 c-51 -45 -86 -112
-104 -197 l-15 -76 -1779 0 c-978 0 -1781 2 -1785 5 -5 3 -11 29 -15 59 -9 66
-44 144 -86 188 -16 18 -30 34 -30 37 0 6 589 877 605 894 10 11 22 10 70 -4
159 -46 343 39 414 191 31 65 39 180 17 250 -8 27 -14 50 -13 51 8 6 226 167
278 205 35 26 176 128 313 228 153 111 253 178 260 173 7 -4 167 -119 355
-257z"/>
</g>
</svg>
